Patient4_TMGait_0pt6_02_left_26_EMG.mot
version=1
nRows=20
nColumns=33
inDegrees=no
endheader
time	1LAddLong	2LGlutMax	3LGlutMed	4LIliopsoas	5LSemiMemb	6LBicFemLong	7LRecFem	8LVastMed	9LVastLat	10LGasMed	11LTibAnt	12lTibPost	13LPeroneusLong	14LSol	15LExtDigLong	16LFlexDigLong	17RAddLong	18RGlutMax	19RGlutMed	20RIliopsoas	21RSemiMemb	22RBicFemLong	23RRecFem	24RVastMed	25RVastLat	26RGasMed	27RTibAnt	28RTibPost	29RPeroneusLong	30RSol	31RExtDigLong	32RFlexDigLong
31.81	0.001678	0.29327	-0.081787	-0.00412	-0.022125	-0.014038	-0.016937	0.001373	0.1294	0.06897	-0.063934	-0.007172	0.036774	-0.168	0.028992	0.020905	-0.032196	0.36224	0.26932	0.033875	0.027161	0.24033	-0.063324	-0.037384	-0.44327	0.003204	0.80536	0.001984	-0.014191	0.55603	-0.003357	-0.013123
31.811	-0.000305	0.29587	-0.08194	0.006256	-0.005646	-0.014801	-0.012665	0.001984	0.11444	0.054321	-0.065613	-0.007477	0.010681	-0.092468	0.072937	0.012054	-0.021515	0.26474	0.4155	0.060425	-0.053864	0.2449	0.058594	-0.21744	-0.76096	0.001373	0.15152	-0.003967	-0.013885	-0.1593	-0.00412	-0.005798
31.812	0.010834	0.31479	-0.076294	0.00473	0.00061	-0.030823	-0.016632	-0.012817	0.11963	0.047302	-0.045929	-0.001831	-0.045471	-0.065002	0.06958	-0.067596	-0.00946	0.20813	0.48904	0.062408	-0.059662	0.13336	0.29205	-0.51331	-0.64819	-0.00412	-0.40283	-0.003357	-0.072479	-0.31296	-0.004578	-0.011902
31.813	0.011292	0.35141	-0.08316	0.019836	0.015869	-0.000763	-0.022736	-0.003357	0.10712	-0.013885	-0.003357	-0.00473	-0.01709	-0.14648	0.079651	-0.23285	0.002441	0.13962	0.26642	-0.03006	0.01358	0.085907	0.20477	-0.551	-0.2919	-0.00885	-0.022888	-0.00412	-0.095978	-0.0177	-0.002899	-0.007935
31.814	0.005951	0.40741	-0.078735	0.014496	0.020447	0.025787	-0.044098	-0.010223	0.1004	-0.063782	0.11612	0.012817	0.008087	-0.159	0.079193	0.28244	-0.010223	0.12054	0.15381	-0.093689	-0.030518	0.023346	-0.07782	-0.04364	0.0177	-0.010223	-0.044556	-0.00412	-0.13229	0.13062	-0.005493	-0.012665
31.815	0.011902	0.50705	-0.088959	0.016479	-0.012817	0.016479	-0.035553	0.000763	0.090637	-0.049744	0.15213	-0.021515	-0.030518	-0.16296	0.012207	0.11581	-0.010223	0.019836	0.22675	-0.12802	-0.046692	-0.12512	-0.28168	0.3122	0.20615	-0.014954	-0.16678	-0.002594	-0.14023	0.47669	-0.002747	-0.011597
31.816	0.009766	0.56015	-0.097656	0.003815	0.0177	0.006104	-0.043182	0.006409	0.09201	-0.03418	0.062408	-0.00351	0.007324	-0.16174	-0.042114	-0.23224	0.003204	0.069427	0.25894	-0.03952	-0.044403	-0.13855	-0.40909	0.30792	0.21759	-0.020294	0.24399	-0.003815	-0.20676	0.80536	-0.002136	-0.008698
31.817	0.003204	0.54352	-0.10239	-0.008545	0.032196	-0.007324	-0.040131	0.010986	0.090485	-0.023193	0.013733	0.001373	0.10513	-0.12283	-0.004578	-0.033875	0.011139	-0.052948	0.16174	0.042419	-0.003357	-0.26016	-0.10757	0.31921	0.040588	-0.024567	0.64667	-0.011139	-0.17761	0.74402	-0.001831	-0.009613
31.818	-0.005188	0.55557	-0.11581	-0.003662	0.007324	-0.013123	-0.054474	0.006104	0.080261	-0.03418	-0.005646	0.008392	0.16861	-0.10254	-0.013733	-0.039215	0.012665	-0.15121	0.14771	0.051117	-0.005493	-0.52795	0.35782	0.49271	-0.10162	-0.005035	1.0895	-0.011292	-0.031281	-0.010223	-0.002747	0.010071
31.819	-0.001526	0.55389	-0.11597	0.007172	-0.014648	-0.016327	-0.041351	-0.00412	0.080414	-0.053558	0.003052	0.000153	0.1506	-0.079651	-0.041809	0.16632	0.016174	-0.1294	0.23834	0.031586	0.015564	-0.44952	0.40588	0.32867	0.088806	-0.003967	1.6969	0.00412	-0.05188	-0.58823	-0.002289	0.002441
31.82	-0.001373	0.55679	-0.11673	0.00473	-0.068817	0.014038	-0.050812	0.010376	0.080719	-0.068817	0.027466	-0.000458	0.071411	-0.052338	0.10407	0.041504	0.032043	-0.11643	0.2095	0.024567	-0.012665	-0.26627	0.2681	0.046082	0.11765	-0.016937	1.3388	0.00885	-0.12756	-1.0002	-0.004883	0.002136
31.821	0.008087	0.55252	-0.12253	0.001373	-0.052948	0.02655	-0.046539	0.008087	0.078125	-0.057678	0.037537	0.004272	0.036469	0.018768	-0.006104	-0.013733	0.027008	-0.17532	0.22018	0.029449	-0.030823	-0.22781	0.16922	-0.012665	0.13382	-0.016632	-0.35339	0.006714	-0.05249	-1.0193	-0.002899	-0.000305
31.822	0.011597	0.56366	-0.1091	0.010986	0.021057	0.01709	-0.04715	0.002594	0.079651	-0.087738	-0.010376	0.00351	0.031433	0.090637	-0.022125	-0.015259	0.000305	-0.22598	0.16007	-0.010376	-0.049438	0.014648	0.048828	0.016632	0.1297	-0.020752	-1.3931	0.002747	-0.066071	-1.5404	-0.002289	-0.011902
31.823	0.011292	0.57083	-0.10559	0.005646	0.03006	0.006409	-0.041199	-0.002441	0.070343	-0.10986	-0.070038	0.00473	0.062866	0.13825	-0.092468	-0.008087	-0.019531	-0.25238	0.22522	-0.029449	-0.019989	0.13596	0.058441	0.004425	0.13245	0.010223	-1.6623	-0.015411	0.034943	-1.873	-0.003357	-0.011292
31.824	0.007782	0.57205	-0.13687	0.022583	0.005493	0.016632	-0.039978	0.005798	0.063629	-0.073395	-0.048676	0.005798	0.019684	0.056763	-0.06897	-0.004883	-0.000458	-0.24612	0.28091	-0.021667	0.001221	0.19623	0.14771	-0.089569	0.099487	0.041656	-0.37079	-0.017395	-0.016327	-0.91476	-0.005493	-0.015564
31.825	0.001526	0.54627	-0.15549	-0.007172	-0.008087	0.000458	-0.059052	0.000916	0.063477	-0.021057	-0.016022	-0.010529	-0.027008	0.048676	-0.088196	-0.013275	0.007935	-0.22308	0.30746	-0.02243	0.053253	0.36087	0.16068	-0.1265	0.10407	0.013428	0.019073	-0.009613	0.048523	0.3537	-0.001068	-0.015106
31.826	0.003967	0.55176	-0.15656	0.003815	-0.025177	-0.022736	-0.072327	0.008087	0.066681	-0.025482	-0.007019	-0.00061	0.081787	0.016479	-0.040894	-0.005798	0.002594	-0.25589	0.17136	0.03418	0.017853	0.52261	0.16495	-0.063477	0.067444	-0.020447	-0.18326	0.000763	0.12329	0.99823	0.001526	-0.011902
31.827	0.006714	0.56625	-0.15686	-0.001068	-0.016022	-0.030365	-0.093079	0.003204	0.058441	-0.030212	0.030823	-0.002747	0.13977	-0.02121	-0.010986	0.069122	0.002594	-0.22064	0.20111	0.071564	-0.011597	0.30395	0.17593	-0.044556	-0.023804	-0.052185	-0.22873	-0.005493	0.10468	1.0768	-0.000458	-0.008698
31.828	0.005646	0.50369	-0.15396	-0.023346	0.041046	-0.035706	-0.084991	0.006409	0.06012	-0.023041	0.016632	0.002289	0.11658	-0.048218	0.003967	-0.20721	0.001831	-0.25253	0.19638	0.075226	-0.036163	0.17242	0.067139	-0.051422	-0.007629	-0.078278	-0.11429	0.005035	0.032654	0.87936	0.002136	0.001984
31.829	0.005188	0.51682	-0.10742	-0.006714	0.068512	-0.054016	-0.068817	0.008545	0.049286	-0.021667	-0.000763	0.006104	0.1181	-0.026855	-0.020752	0.14923	0.015259	-0.14206	0.037994	0.063324	-0.055847	0.090485	0.027924	-0.14618	0.38605	-0.094452	0.049438	0.060577	-0.15549	0.76904	0.000916	0.00351
